<svg id="Calque_1" data-name="Calque 1" xmlns="http://www.w3.org/2000/svg" xmlns:xlink="http://www.w3.org/1999/xlink" viewBox="0 0 4523.04 2118.05"><defs><style>.cls-1{fill:#849acf;}.cls-2{fill:url(#Dégradé_sans_nom_2);}</style><linearGradient id="Dégradé_sans_nom_2" x1="178.53" y1="-347.64" x2="178.53" y2="1469.91" gradientTransform="matrix(1, 0, 0, -1, -0.02, 842.1)" gradientUnits="userSpaceOnUse"><stop offset="0" stop-color="#244194"/><stop offset="1" stop-color="#4062ab"/></linearGradient></defs><path class="cls-1" d="M-1665.6,176.37l-215.48,692.48L2416,1487.3l99-318.19c52-167.19,20.2-336.45-86.06-457.67L1764.39-46.69c-52.35-59.72-120.63-105.26-199.53-133.08L374.3-599.6c-111.48-39.31-239-41.46-363.32-6.13L-1203.25-260.58C-1422.3-198.32-1601.79-28.69-1665.6,176.37Z" transform="translate(1983.52 630.74)"/><path class="cls-2" d="M-1983.52,618.83v570.91H2340.53V954.88a561.34,561.34,0,0,0-249-466.41L1248.88-75.9a561.37,561.37,0,0,0-217.64-86.89l-1303-223.08A561.34,561.34,0,0,0-587.2-348.72L-1642.88,102.69A561.35,561.35,0,0,0-1983.52,618.83Z" transform="translate(1983.52 630.74)"/></svg>